HIERARCHY
ROOT Hips
{
	OFFSET 0.000000 0.000000 0.000000
	CHANNELS 6 Xposition Yposition Zposition Zrotation Yrotation Xrotation 
	JOINT LHipJoint
	{
		OFFSET 0.000000 0.000000 0.000000
		CHANNELS 3 Zrotation Yrotation Xrotation
		JOINT LeftUpLeg
		{
			OFFSET 1.363060 -1.794630 0.839290
			CHANNELS 3 Zrotation Yrotation Xrotation
			JOINT LeftLeg
			{
				OFFSET 2.448110 -6.726130 0.000000
				CHANNELS 3 Zrotation Yrotation Xrotation
				JOINT LeftFoot
				{
					OFFSET 2.562200 -7.039590 0.000000
					CHANNELS 3 Zrotation Yrotation Xrotation
					JOINT LeftToeBase
					{
						OFFSET 0.157640 -0.433110 2.322550
						CHANNELS 3 Zrotation Yrotation Xrotation
						End Site
						{
							OFFSET 0.000000 0.000000 0.000000
						}
					}
				}
			}
		}
	}
	JOINT RHipJoint
	{
		OFFSET 0.000000 0.000000 0.000000
		CHANNELS 3 Zrotation Yrotation Xrotation
		JOINT RightUpLeg
		{
			OFFSET -1.305520 -1.794630 0.839290
			CHANNELS 3 Zrotation Yrotation Xrotation
			JOINT RightLeg
			{
				OFFSET -2.542530 -6.985550 0.000000
				CHANNELS 3 Zrotation Yrotation Xrotation
				JOINT RightFoot
				{
					OFFSET -2.568260 -7.056230 0.000000
					CHANNELS 3 Zrotation Yrotation Xrotation
					JOINT RightToeBase
					{
						OFFSET -0.164730 -0.452590 2.363150
						CHANNELS 3 Zrotation Yrotation Xrotation
						End Site
						{
							OFFSET 0.000000 0.000000 0.000000
						}
					}
				}
			}
		}
	}
	JOINT LowerBack
	{
		OFFSET 0.000000 0.000000 0.000000
		CHANNELS 3 Zrotation Yrotation Xrotation
		JOINT Spine
		{
			OFFSET 0.028270 2.035590 -0.193380
			CHANNELS 3 Zrotation Yrotation Xrotation
			JOINT Spine1
			{
				OFFSET 0.056720 2.048850 -0.042750
				CHANNELS 3 Zrotation Yrotation Xrotation
				JOINT Neck
				{
					OFFSET 0.000000 0.000000 0.000000
					CHANNELS 3 Zrotation Yrotation Xrotation
					JOINT Neck1
					{
						OFFSET -0.054170 1.746240 0.172020
						CHANNELS 3 Zrotation Yrotation Xrotation
						JOINT Head
						{
							OFFSET 0.104070 1.761360 -0.123970
							CHANNELS 3 Zrotation Yrotation Xrotation
							End Site
							{
								OFFSET 0.000000 0.000000 0.000000
							}
						}
					}
				}
				JOINT LeftShoulder
				{
					OFFSET 0.000000 0.000000 0.000000
					CHANNELS 3 Zrotation Yrotation Xrotation
					JOINT LeftArm
					{
						OFFSET 3.362410 1.200890 -0.311210
						CHANNELS 3 Zrotation Yrotation Xrotation
						JOINT LeftForeArm
						{
							OFFSET 4.983000 -0.000000 -0.000000
							CHANNELS 3 Zrotation Yrotation Xrotation
							JOINT LeftHand
							{
								OFFSET 3.483560 -0.000000 -0.000000
								CHANNELS 3 Zrotation Yrotation Xrotation
								JOINT LeftFingerBase
								{
									OFFSET 0.000000 0.000000 0.000000
									CHANNELS 3 Zrotation Yrotation Xrotation
									JOINT LeftHandIndex1
									{
										OFFSET 0.715260 -0.000000 -0.000000
										CHANNELS 3 Zrotation Yrotation Xrotation
										End Site
										{
											OFFSET 0.000000 0.000000 0.000000
										}
									}
								}
								JOINT LThumb
								{
									OFFSET 0.000000 0.000000 0.000000
									CHANNELS 3 Zrotation Yrotation Xrotation
									End Site
									{
										OFFSET 0.000000 0.000000 0.000000
									}
								}
							}
						}
					}
				}
				JOINT RightShoulder
				{
					OFFSET 0.000000 0.000000 0.000000
					CHANNELS 3 Zrotation Yrotation Xrotation
					JOINT RightArm
					{
						OFFSET -3.136600 1.374050 -0.404650
						CHANNELS 3 Zrotation Yrotation Xrotation
						JOINT RightForeArm
						{
							OFFSET -5.241900 -0.000000 -0.000000
							CHANNELS 3 Zrotation Yrotation Xrotation
							JOINT RightHand
							{
								OFFSET -3.444170 -0.000000 -0.000000
								CHANNELS 3 Zrotation Yrotation Xrotation
								JOINT RightFingerBase
								{
									OFFSET 0.000000 0.000000 0.000000
									CHANNELS 3 Zrotation Yrotation Xrotation
									JOINT RightHandIndex1
									{
										OFFSET -0.622530 -0.000000 -0.000000
										CHANNELS 3 Zrotation Yrotation Xrotation
										End Site
										{
											OFFSET 0.000000 0.000000 0.000000
										}
									}
								}
								JOINT RThumb
								{
									OFFSET 0.000000 0.000000 0.000000
									CHANNELS 3 Zrotation Yrotation Xrotation
									End Site
									{
										OFFSET 0.000000 0.000000 0.000000
									}
								}
							}
						}
					}
				}
			}
		}
	}
}
MOTION
Frames: 8
Frame Time: 0.008333
-26.691597 17.349498 -4.207957 -9.760341 88.121150 -3.151560 3.368779 1.358868 -0.550781 -15.221974 -25.291167 -5.609238 -1.440558 9.087250 23.804739 -2.649682 16.218721 -10.145811 0.826400 -5.799800 -16.204600 -9.145024 -1.778239 -2.240107 26.314645 14.763114 -3.131904 1.983849 -7.709787 22.190437 3.556190 -28.003054 -24.124228 -0.167500 2.637000 -7.269600 0.292951 0.383401 0.306939 1.179856 0.770416 -3.644723 -0.106131 -0.074045 2.054023 -4.274526 -2.103270 -20.948506 11.091810 -1.570201 16.167853 5.101300 0.311000 15.548000 2.317490 -0.602330 -0.834312 -83.264300 2.533590 31.547758 24.186155 -33.281855 -8.793977 -0.258076 -2.032439 -26.301185 30.130208 48.851825 24.951500 -7.125000 0.000000 0.000000 -41.449400 82.658600 -36.345800 -3.849826 1.671837 -1.156957 81.171160 -4.910730 23.669973 -18.349634 30.699731 -5.604375 0.592875 -0.256114 -8.063866 -16.703387 14.893648 -4.655700 7.125000 0.000000 0.000000 6.978800 -14.181700 5.095000 
-26.684619 17.349199 -4.202574 -11.631637 87.937920 -5.001217 3.409555 1.400129 -0.543270 -15.154344 -25.272161 -5.552607 -1.454753 9.067477 23.753146 -2.680281 16.356275 -10.304367 0.876300 -5.967900 -16.691300 -9.108420 -1.734198 -2.249565 26.385643 14.896787 -3.109874 1.987849 -7.712435 22.186211 3.535083 -27.953868 -24.181990 -0.154000 2.528400 -6.968300 0.422126 0.438647 0.203306 1.194914 0.827097 -3.637674 -0.087610 -0.041602 2.117047 -4.269447 -2.092957 -20.973225 11.095948 -1.555175 16.216068 5.110700 0.319800 15.584500 2.368219 -0.609811 -0.829731 -83.626608 2.124668 32.677107 25.438374 -34.516471 -9.552182 -0.225033 -2.027773 -26.444711 30.672390 49.816055 25.703800 -7.125000 0.000000 0.000000 -48.068200 83.365900 -42.927900 -3.891506 1.687314 -1.167638 81.157417 -4.546686 25.125804 -19.620684 32.164722 -6.262020 0.595293 -0.268884 -8.658599 -16.932348 15.395782 -4.877100 7.125000 0.000000 0.000000 6.840700 -13.622800 5.074100 
-26.679834 17.351492 -4.194499 -8.489004 87.940895 -1.835700 3.319589 1.336597 -0.557982 -15.119360 -25.061285 -5.540951 -1.475784 9.011340 23.631748 -2.655484 16.232118 -10.467968 0.864500 -5.928800 -16.578100 -9.188717 -1.798195 -2.226187 26.374861 14.987582 -3.147411 1.981730 -7.740306 22.238160 3.511067 -27.890060 -24.252123 -0.141200 2.421400 -6.671800 0.371573 0.439799 0.140054 1.189385 0.848544 -3.639873 -0.115724 -0.042703 2.141319 -4.264444 -2.111911 -21.007208 11.119339 -1.582403 16.260239 5.130600 0.314800 15.630800 2.407807 -0.631918 -0.826401 -83.906710 1.763268 33.788912 26.687180 -35.666125 -10.279122 -0.225269 -1.957585 -26.442447 29.947855 48.690828 24.687900 -7.125000 0.000000 0.000000 -40.499300 82.449000 -35.339400 -3.933371 1.692714 -1.177912 81.201602 -4.014697 26.494011 -20.648656 33.299376 -6.811039 0.590795 -0.268866 -9.216994 -16.942264 15.410970 -4.883900 7.125000 0.000000 0.000000 6.840000 -13.601400 5.076700 
-26.678140 17.353984 -4.185926 -1.736805 88.149735 4.890431 3.165050 1.177869 -0.604824 -15.195031 -25.061408 -5.385557 -1.500134 8.936649 23.498377 -2.642823 16.188982 -10.736653 0.780800 -5.641500 -15.747600 -9.325699 -1.971648 -2.161904 26.297230 14.971487 -3.195345 1.974383 -7.772466 22.289732 3.507274 -27.873177 -24.252570 -0.147600 2.476000 -6.823000 0.191324 0.368465 0.186141 1.184700 0.798481 -3.646289 -0.130263 -0.098109 2.104853 -4.257846 -2.112007 -21.002929 11.126097 -1.580853 16.291281 5.137200 0.319200 15.658500 2.443518 -0.675377 -0.818651 -84.148242 1.380136 34.748536 27.738693 -36.619482 -10.948157 -0.192564 -1.948495 -26.411601 29.759000 49.529404 24.763700 -7.125000 0.000000 0.000000 -46.450100 82.781000 -40.974900 -3.970350 1.682735 -1.190988 81.292391 -3.624863 27.637803 -21.744037 34.470646 -7.416986 0.579233 -0.272616 -9.515427 -16.737452 15.412533 -4.821500 7.125000 0.000000 0.000000 6.987100 -13.615500 5.185400 
-26.663585 17.353386 -4.177752 -0.197615 87.999297 6.434477 3.133291 1.150378 -0.620040 -15.316202 -25.497372 -4.967918 -1.547060 8.865060 23.329856 -2.776259 16.844243 -11.082115 0.837100 -5.836500 -16.310800 -9.357017 -2.010954 -2.140894 26.303324 15.160035 -3.176974 1.969298 -7.804600 22.351545 3.482345 -27.827846 -24.390251 -0.155400 2.539900 -7.000200 0.193770 0.419454 0.060374 1.182848 0.873626 -3.635511 -0.143371 -0.070883 2.181078 -4.238091 -2.106368 -20.990797 11.108791 -1.577875 16.333731 5.125200 0.322200 15.680700 2.481170 -0.691452 -0.813560 -84.431518 1.017252 35.609963 28.646452 -37.408935 -11.516353 -0.177717 -1.914642 -26.401788 29.232262 49.343335 24.228000 -7.125000 0.000000 0.000000 -45.547500 82.436900 -39.882100 -4.007782 1.674881 -1.199531 81.399431 -3.407546 28.612930 -23.011065 35.787653 -8.138897 0.584383 -0.291316 -9.603637 -17.070357 15.950556 -5.088900 7.125000 0.000000 0.000000 6.780200 -13.006700 5.117000 
-26.672657 17.358470 -4.161104 2.986580 88.321686 9.664414 3.094414 1.061198 -0.646781 -15.228726 -25.495822 -5.020238 -1.549081 8.801706 23.183758 -2.753480 16.670079 -10.498415 0.939100 -6.172500 -17.285600 -9.395769 -2.103216 -2.090004 26.280969 14.998045 -3.383589 1.962406 -7.849233 22.419426 3.492597 -27.869287 -24.400420 -0.167200 2.634600 -7.262900 0.102044 0.298364 0.219332 1.207024 0.732646 -3.678602 -0.081139 -0.159100 1.995081 -4.228984 -2.117565 -20.985672 11.104017 -1.588185 16.358052 5.118900 0.320300 15.717600 2.516950 -0.730876 -0.814308 -84.686677 0.714417 36.500075 29.530044 -38.146979 -12.082306 -0.178488 -1.888758 -26.245290 29.340710 49.292795 24.288800 -7.125000 0.000000 0.000000 -45.047700 82.448800 -39.438600 -4.036516 1.689355 -1.212054 81.474788 -3.134636 29.603259 -24.212525 36.962633 -8.834867 0.589217 -0.313173 -9.725800 -17.414004 16.556261 -5.387800 7.125000 0.000000 0.000000 6.574000 -12.320800 5.054000 
-26.661293 17.357074 -4.152033 1.548566 88.067598 8.172703 3.109085 1.122899 -0.625164 -15.288891 -25.779189 -4.644419 -1.586711 8.747306 23.048018 -2.840929 17.095262 -10.807856 1.000300 -6.364500 -17.845800 -9.390344 -2.063022 -2.114173 26.364949 15.166390 -3.271623 1.950522 -7.868350 22.485913 3.484394 -27.833390 -24.345458 -0.160600 2.581600 -7.116100 0.197653 0.339503 0.215542 1.221446 0.775908 -3.658770 -0.073516 -0.132580 2.052613 -4.201731 -2.082471 -21.023906 11.085712 -1.547595 16.384441 5.109100 0.337800 15.740300 2.551752 -0.733846 -0.809365 -84.921106 0.460273 37.313780 30.334300 -38.809096 -12.602866 -0.190869 -1.861879 -26.190672 30.006505 48.935293 24.739300 -7.125000 0.000000 0.000000 -41.921200 82.557200 -36.696800 -4.066391 1.697029 -1.217171 81.501526 -2.984308 30.580114 -25.598265 38.286876 -9.677482 0.574716 -0.322972 -9.849417 -17.042629 16.682235 -5.305000 7.125000 0.000000 0.000000 6.836700 -12.223200 5.272900 
-26.652720 17.357373 -4.136980 -0.855600 87.882930 5.774161 3.140493 1.199698 -0.597070 -15.199052 -25.738497 -4.530491 -1.617125 8.694564 22.898461 -2.875158 17.235606 -10.916435 1.047800 -6.509300 -18.269600 -9.362992 -1.993134 -2.144410 26.484257 15.276469 -3.237894 1.943789 -7.888168 22.544995 3.447406 -27.749587 -24.469997 -0.135000 2.367800 -6.523300 0.307982 0.343805 0.187950 1.243816 0.764244 -3.645618 -0.057330 -0.128557 2.108621 -4.134979 -2.039607 -21.063709 11.075386 -1.513467 16.401626 5.092200 0.359100 15.756400 2.585083 -0.731090 -0.806574 -85.123710 0.247945 37.962837 31.045435 -39.374412 -13.058166 -0.212852 -1.824255 -26.278169 30.708452 47.981409 25.025300 -7.125000 0.000000 0.000000 -34.912800 82.301600 -30.259600 -4.096989 1.707601 -1.222665 81.596504 -2.971796 31.357033 -27.171783 39.717551 -10.671443 0.549173 -0.315953 -9.809064 -16.340579 16.109295 -4.906600 7.125000 0.000000 0.000000 7.299800 -12.898200 5.532300 
